<svg width="78" height="15" viewBox="0 0 78 15" fill="none" xmlns="http://www.w3.org/2000/svg">
<path d="M14.9432 7.47426C14.9432 7.96446 14.8958 8.44939 14.8009 8.92905C14.7008 9.40871 14.5585 9.87782 14.374 10.3311C14.1842 10.7844 13.9576 11.2167 13.6835 11.6225C13.4094 12.0284 13.0984 12.4079 12.7558 12.7558C12.4079 13.1037 12.0284 13.4094 11.6225 13.6835C11.2114 13.9576 10.7844 14.1895 10.3311 14.374C9.87782 14.5637 9.40871 14.706 8.92905 14.8009C8.44412 14.8958 7.95919 14.9432 7.46898 14.9432C6.97878 14.9432 6.49385 14.8958 6.01419 14.8009C5.52926 14.706 5.06542 14.5637 4.61211 14.374C4.15881 14.1895 3.72659 13.9576 3.32072 13.6835C2.90958 13.4094 2.53534 13.1037 2.18746 12.7558C1.83957 12.4079 1.52858 12.0284 1.25977 11.6225C0.985674 11.2167 0.753751 10.7844 0.569266 10.3311C0.379511 9.87782 0.237194 9.40871 0.142317 8.92905C0.0474385 8.44939 0 7.96446 0 7.47426C0 6.97878 0.0474385 6.49385 0.142317 6.01419C0.237194 5.53453 0.379511 5.06542 0.569266 4.61211C0.753751 4.15881 0.985674 3.72659 1.25977 3.32072C1.52858 2.91485 1.83957 2.53534 2.18746 2.18746C2.53534 1.83957 2.90958 1.53386 3.32072 1.25977C3.72659 0.985674 4.15881 0.753751 4.61211 0.569268C5.06542 0.379511 5.52926 0.237195 6.01419 0.142317C6.49385 0.0474399 6.97878 0 7.46898 0C7.95919 0 8.44412 0.0474399 8.92905 0.142317C9.40871 0.237195 9.87782 0.379511 10.3311 0.569268C10.7844 0.753751 11.2114 0.985674 11.6225 1.25977C12.0284 1.53386 12.4079 1.83957 12.7558 2.18746C13.0984 2.53534 13.4094 2.91485 13.6835 3.32072C13.9576 3.72659 14.1842 4.15881 14.374 4.61211C14.5585 5.06542 14.7008 5.53453 14.8009 6.01419C14.8958 6.49385 14.9432 6.97878 14.9432 7.47426Z" fill="#818180"/>
<path d="M46.5059 7.47426C46.5059 7.96446 46.4584 8.44939 46.3636 8.92905C46.2687 9.40871 46.1264 9.87782 45.9366 10.3311C45.7521 10.7844 45.5202 11.2167 45.2461 11.6225C44.9773 12.0284 44.6663 12.4079 44.3184 12.7558C43.9705 13.1037 43.5963 13.4094 43.1852 13.6835C42.7793 13.9576 42.3471 14.1895 41.8938 14.374C41.4405 14.5637 40.9766 14.706 40.4917 14.8009C40.012 14.8958 39.5271 14.9432 39.0369 14.9432C38.5467 14.9432 38.0565 14.8958 37.5768 14.8009C37.0972 14.706 36.6281 14.5637 36.1748 14.374C35.7215 14.1895 35.2945 13.9576 34.8834 13.6835C34.4775 13.4094 34.098 13.1037 33.7501 12.7558C33.4075 12.4079 33.0965 12.0284 32.8224 11.6225C32.5483 11.2167 32.3217 10.7844 32.1319 10.3311C31.9422 9.87782 31.8051 9.40871 31.705 8.92905C31.6101 8.44939 31.5626 7.96446 31.5626 7.47426C31.5626 6.97878 31.6101 6.49385 31.705 6.01419C31.8051 5.53453 31.9422 5.06542 32.1319 4.61211C32.3217 4.15881 32.5483 3.72659 32.8224 3.32072C33.0965 2.91485 33.4075 2.53534 33.7501 2.18746C34.098 1.83957 34.4775 1.53386 34.8834 1.25977C35.2945 0.985674 35.7215 0.753751 36.1748 0.569268C36.6281 0.379511 37.0972 0.237195 37.5768 0.142317C38.0565 0.0474399 38.5467 0 39.0369 0C39.5271 0 40.012 0.0474399 40.4917 0.142317C40.9766 0.237195 41.4405 0.379511 41.8938 0.569268C42.3471 0.753751 42.7793 0.985674 43.1852 1.25977C43.5963 1.53386 43.9705 1.83957 44.3184 2.18746C44.6663 2.53534 44.9773 2.91485 45.2461 3.32072C45.5202 3.72659 45.7521 4.15881 45.9366 4.61211C46.1264 5.06542 46.2687 5.53453 46.3636 6.01419C46.4584 6.49385 46.5059 6.97878 46.5059 7.47426Z" fill="white"/>
<path d="M78 7.47426C78 7.96446 77.9526 8.44939 77.8577 8.92905C77.7575 9.40871 77.6152 9.87782 77.4307 10.3311C77.241 10.7844 77.0143 11.2167 76.7402 11.6225C76.4661 12.0284 76.1552 12.4079 75.8125 12.7558C75.4647 13.1037 75.0851 13.4094 74.6793 13.6835C74.2681 13.9576 73.8412 14.1895 73.3879 14.374C72.9346 14.5637 72.4655 14.706 71.9858 14.8009C71.5009 14.8958 71.0159 14.9432 70.5257 14.9432C70.0355 14.9432 69.5506 14.8958 69.071 14.8009C68.586 14.706 68.1222 14.5637 67.6689 14.374C67.2156 14.1895 66.7833 13.9576 66.3775 13.6835C65.9663 13.4094 65.5921 13.1037 65.2442 12.7558C64.8963 12.4079 64.5853 12.0284 64.3165 11.6225C64.0424 11.2167 63.8105 10.7844 63.626 10.3311C63.4363 9.87782 63.294 9.40871 63.1991 8.92905C63.1042 8.44939 63.0568 7.96446 63.0568 7.47426C63.0568 6.97878 63.1042 6.49385 63.1991 6.01419C63.294 5.53453 63.4363 5.06542 63.626 4.61211C63.8105 4.15881 64.0424 3.72659 64.3165 3.32072C64.5853 2.91485 64.8963 2.53534 65.2442 2.18746C65.5921 1.83957 65.9663 1.53386 66.3775 1.25977C66.7833 0.985674 67.2156 0.753751 67.6689 0.569268C68.1222 0.379511 68.586 0.237195 69.071 0.142317C69.5506 0.0474399 70.0355 0 70.5257 0C71.0159 0 71.5009 0.0474399 71.9858 0.142317C72.4655 0.237195 72.9346 0.379511 73.3879 0.569268C73.8412 0.753751 74.2681 0.985674 74.6793 1.25977C75.0851 1.53386 75.4647 1.83957 75.8125 2.18746C76.1552 2.53534 76.4661 2.91485 76.7402 3.32072C77.0143 3.72659 77.241 4.15881 77.4307 4.61211C77.6152 5.06542 77.7575 5.53453 77.8577 6.01419C77.9526 6.49385 78 6.97878 78 7.47426Z" fill="#818180"/>
</svg>
